Coordinates
version=1
nRows=16
nColumns=30
inDegrees=yes

Units are S.I. units (second, meters, Newtons, ...)
Angles are in degrees.

endheader
time	floatyaw	floatroll	floatpitch	floatx	floaty	floatz	pro_sup_l	deviation_l	flexion_l	cmc_flexion_l	cmc_abduction_l	mp_flexion_l	ip_flexion_l	2mcp_flexion_l	2mcp_abduction_l	2pm_flexion_l	2md_flexion_l	3mcp_flexion_l	3mcp_abduction_l	3pm_flexion_l	3md_flexion_l	4mcp_flexion_l	4mcp_abduction_l	4pm_flexion_l	4md_flexion_l	5mcp_flexion_l	5mcp_abduction_l	5pm_flexion_l	5md_flexion_l
-1.495000	-0.845308	-4.283240	94.249796	-0.006588	-0.268732	-0.000803	90.058399	-0.951380	-2.249041	28.007500	2.297541	-18.835204	-35.105180	18.554659	5.541657	33.396140	20.865567	8.680990	3.971421	35.718085	21.417947	-1.177237	-3.203522	52.764428	33.209802	-19.992132	-9.919683	61.532327	48.425790
-1.485000	-0.845308	-4.283240	94.249796	-0.006578	-0.268691	-0.000846	90.072972	-0.930863	-2.224233	28.002094	2.240253	-18.813574	-35.088693	18.550833	5.528658	33.384375	20.838433	8.609539	3.971661	35.779496	21.448502	-1.220302	-3.204382	52.817413	33.216367	-20.011933	-9.907903	61.574229	48.411625
-1.475000	-0.845308	-4.283240	94.249796	-0.006564	-0.268651	-0.000892	90.100468	-0.903325	-2.203374	27.993557	2.161002	-18.771352	-35.085626	18.540550	5.513253	33.392458	20.807007	8.536635	3.967560	35.861994	21.471062	-1.262108	-3.203307	52.895998	33.209505	-20.011036	-9.895303	61.618647	48.409751
-1.465000	-0.845308	-4.283240	94.249796	-0.006552	-0.268617	-0.000927	90.138282	-0.874069	-2.189640	27.978106	2.073503	-18.715633	-35.088788	18.527247	5.495544	33.415772	20.776924	8.478430	3.961912	35.944279	21.479691	-1.294626	-3.200158	52.985562	33.188919	-19.986664	-9.884489	61.655131	48.414343
-1.455000	-0.845308	-4.283240	94.249796	-0.006547	-0.268597	-0.000942	90.179957	-0.848773	-2.185387	27.956247	1.992974	-18.661480	-35.091197	18.516892	5.475623	33.442348	20.753261	8.446845	3.957553	36.004812	21.473946	-1.312503	-3.195382	53.066257	33.160331	-19.941146	-9.876110	61.672547	48.421675
-1.445000	-0.845308	-4.283240	94.249796	-0.006553	-0.268595	-0.000932	90.217004	-0.831847	-2.191046	27.932298	1.931433	-18.624481	-35.090637	18.513670	5.454702	33.459814	20.740079	8.445313	3.955833	36.030002	21.458782	-1.314573	-3.189551	53.120901	33.132922	-19.883176	-9.868841	61.664926	48.429679
-1.435000	-0.845308	-4.283240	94.249796	-0.006569	-0.268613	-0.000899	90.242214	-0.825317	-2.205230	27.912510	1.894345	-18.613207	-35.091410	18.517983	5.435656	33.461491	20.739064	8.469877	3.956083	36.017461	21.440303	-1.302217	-3.182918	53.140304	33.114733	-19.823957	-9.860571	61.633234	48.436587
-1.425000	-0.845308	-4.283240	94.249796	-0.006591	-0.268648	-0.000852	90.252416	-0.828663	-2.225508	27.902793	1.879976	-18.625746	-35.102601	18.527488	5.422220	33.448409	20.748131	8.513234	3.956290	35.974106	21.421070	-1.277483	-3.175432	53.124779	33.108939	-19.771731	-9.850149	61.583239	48.440036
-1.415000	-0.845308	-4.283240	94.249796	-0.006616	-0.268692	-0.000798	90.248963	-0.839641	-2.248917	27.906537	1.881755	-18.651736	-35.133551	18.539533	5.417227	33.426831	20.761510	8.567722	3.954483	35.911850	21.399014	-1.243328	-3.167229	53.082473	33.113135	-19.729387	-9.838473	61.522168	48.437576
-1.405000	-0.845308	-4.283240	94.249796	-0.006640	-0.268736	-0.000745	90.235972	-0.855620	-2.271958	27.922876	1.892305	-18.678086	-35.188169	18.552679	5.421166	33.403503	20.772116	8.625500	3.949973	35.843619	21.370831	-1.205203	-3.159096	53.025441	33.121521	-19.696628	-9.828043	61.456473	48.428425
-1.395000	-0.845308	-4.283240	94.249796	-0.006660	-0.268772	-0.000695	90.217933	-0.874622	-2.290701	27.946100	1.906691	-18.694943	-35.260478	18.566432	5.432069	33.381822	20.775083	8.677562	3.943792	35.780693	21.336739	-1.170923	-3.152391	52.964498	33.128094	-19.673762	-9.821260	61.390960	48.415525
-1.385000	-0.845308	-4.283240	94.249796	-0.006677	-0.268795	-0.000648	90.198371	-0.895525	-2.301721	27.967178	1.923229	-18.699208	-35.334241	18.580092	5.446735	33.361073	20.770068	8.714331	3.938194	35.731203	21.302469	-1.147445	-3.148409	52.904861	33.129073	-19.663061	-9.818790	61.328544	48.406361
-1.375000	-0.845308	-4.283240	94.249796	-0.006693	-0.268804	-0.000604	90.179944	-0.917530	-2.303610	27.977513	1.942034	-18.694705	-35.388348	18.592030	5.462391	33.338814	20.760917	8.728393	3.935573	35.699660	21.277170	-1.136872	-3.147777	52.845389	33.124038	-19.666766	-9.819279	61.270832	48.410862
-1.365000	-0.845308	-4.283240	94.249796	-0.006709	-0.268803	-0.000563	90.165064	-0.939492	-2.297928	27.973314	1.962760	-18.689530	-35.406306	18.599808	5.477693	33.314468	20.753446	8.717349	3.937392	35.687539	21.269390	-1.135629	-3.150383	52.782554	33.115977	-19.684457	-9.820703	61.220305	48.436152
-1.355000	-0.845308	-4.283240	94.249796	-0.006723	-0.268798	-0.000528	90.156011	-0.959664	-2.288610	27.957769	1.983231	-18.691850	-35.384662	18.600986	5.492535	33.291338	20.752939	8.684584	3.943616	35.694392	21.283981	-1.137861	-3.155774	52.716504	33.110264	-19.712698	-9.822391	61.183189	48.481145
-1.345000	-0.845308	-4.283240	94.249796	-0.006735	-0.268796	-0.000501	90.154158	-0.976023	-2.280083	27.939161	2.000196	-18.705908	-35.334873	18.594592	5.507038	33.275232	20.762160	8.637981	3.952889	35.718278	21.320751	-1.139841	-3.163505	52.654098	33.112555	-19.746578	-9.826093	61.169661	48.535607
